{"title":"Mission Impossible - Ghost Protocol 2011 Cam XviD Feel-Free","uid":6893588,"size":1123550528,"categoryP":"video","categoryS":"movies","magnet":"?xt=urn:btih:2c27836e12b3da71cd9d5bccd0506e53f4800660&amp;dn=Mission+Impossible+-+Ghost+Protocol+2011+Cam+XviD+Feel-Free&amp;tr=udp%3A%2F%2Ftracker.openbittorrent.com%3A80&amp;tr=udp%3A%2F%2Fopen.demonii.com%3A1337&amp;tr=udp%3A%2F%2Ftracker.coppersurfer.tk%3A6969&amp;tr=udp%3A%2F%2Fexodus.desync.com%3A6969","seeders":1,"leechers":0,"uploader":".BONE.","files":8,"time":1324111523,"description":"Genre:Action | Adventure | Thriller\nLanguage:English\n &lt;a href=&quot;\nhttp://www.imdb.com/title/tt1229238/&quot; rel=&quot;nofollow&quot; target=&quot;_NEW&quot;&gt;\nhttp://www.imdb.com/title/tt1229238/&lt;/a&gt;\n\nSource:Russian PROPER/NightMareZ Thanks!\n\nFormat : AVI\nFormat/Info : Audio Video Interleave\nFile size : 1.05 GiB\nDuration : 2h 4mn\nOverall bit rate : 1 198 Kbps\n\nVideo\nID : 0\nFormat : MPEG-4 Visual\nFormat profile : Advanced Simple@L5\nFormat settings, BVOP : Yes\nFormat settings, QPel : No\nFormat settings, GMC : No warppoints\nFormat settings, Matrix : Default (H.263)\nCodec ID : XVID\nCodec ID/Hint : XviD\nDuration : 2h 4mn\nBit rate : 996 Kbps\nWidth : 640 pixels\nHeight : 280 pixels\nDisplay aspect ratio : 2.25:1\nFrame rate : 25.000 fps\nColor space : YUV\nChroma subsampling : 4:2:0\nBit depth : 8 bits\nScan type : Progressive\nBits/(Pixel*Frame) : 0.222\nStream size : 890 MiB (83%)\nWriting library : XviD 1.2.1 (UTC 2008-12-04)\n\nAudio\nID : 1\nFormat : AC-3\nFormat/Info : Audio Coding 3\nMode extension : CM (complete main)\nCodec ID : 2000\nDuration : 2h 4mn\nBit rate mode : Constant\nBit rate : 192 Kbps\nChannel(s) : 2 channels\nChannel positions : Front: L R\nSampling rate : 48.0 KHz\nBit depth : 16 bits\nStream size : 172 MiB (16%)\nAlignment : Aligned on interleaves\nInterleave, duration : 40 ms (1.00 video frame)\nInterleave, preload duration : 512 ms\n\n\nPlot:\nThe IMF is shut down when it's implicated in the bombing of the Kremlin, causing Ethan Hunt and his new team to go rogue to clear their organization's name\n &lt;a href=&quot;\nhttp://img714.imageshack.us/img714/1795/vlcsnap00004nt.png&quot; rel=&quot;nofollow&quot; target=&quot;_NEW&quot;&gt;\nhttp://img714.imageshack.us/img714/1795/vlcsnap00004nt.png&lt;/a&gt;\n &lt;a href=&quot;\nhttp://img100.imageshack.us/img100/6563/vlcsnap00002nr.png&quot; rel=&quot;nofollow&quot; target=&quot;_NEW&quot;&gt;\nhttp://img100.imageshack.us/img100/6563/vlcsnap00002nr.png&lt;/a&gt;\n &lt;a href=&quot;\nhttp://img542.imageshack.us/img542/7429/vlcsnap00001z.png&quot; rel=&quot;nofollow&quot; target=&quot;_NEW&quot;&gt;\nhttp://img542.imageshack.us/img542/7429/vlcsnap00001z.png&lt;/a&gt;\n &lt;a href=&quot;\nhttp://img64.imageshack.us/img64/3164/vlcsnap00003a.png&quot; rel=&quot;nofollow&quot; target=&quot;_NEW&quot;&gt;\nhttp://img64.imageshack.us/img64/3164/vlcsnap00003a.png&lt;/a&gt;","torrent":{"xt":"urn:btih:2c27836e12b3da71cd9d5bccd0506e53f4800660","amp;dn":"Mission+Impossible+-+Ghost+Protocol+2011+Cam+XviD+Feel-Free","amp;tr":["udp%3A%2F%2Ftracker.openbittorrent.com%3A80","udp%3A%2F%2Fopen.demonii.com%3A1337","udp%3A%2F%2Ftracker.coppersurfer.tk%3A6969","udp%3A%2F%2Fexodus.desync.com%3A6969"],"infoHash":"2c27836e12b3da71cd9d5bccd0506e53f4800660","infoHashBuffer":{"type":"Buffer","data":[44,39,131,110,18,179,218,113,205,157,91,204,208,80,110,83,244,128,6,96]},"announce":[],"urlList":[]}}